<svg width="270" height="51" viewBox="0 0 270 51" fill="none" xmlns="http://www.w3.org/2000/svg">
<g filter="url(#filter0_d_1_497)">
<path d="M16.398 42V7.374H4.566V1.4H35.712V7.374H23.822V42H16.398ZM50.7906 42.696C48.0066 42.696 45.4933 42.058 43.2506 40.782C41.0466 39.506 39.2873 37.7467 37.9726 35.504C36.6966 33.2227 36.0586 30.5933 36.0586 27.616C36.0586 24.6387 36.716 22.0287 38.0306 19.786C39.3453 17.5047 41.1046 15.726 43.3086 14.45C45.5513 13.174 48.0646 12.536 50.8486 12.536C53.594 12.536 56.0686 13.174 58.2726 14.45C60.5153 15.726 62.2746 17.5047 63.5506 19.786C64.8653 22.0287 65.5226 24.6387 65.5226 27.616C65.5226 30.5933 64.8653 33.2227 63.5506 35.504C62.2746 37.7467 60.5153 39.506 58.2726 40.782C56.03 42.058 53.536 42.696 50.7906 42.696ZM50.7906 36.258C52.724 36.258 54.406 35.5427 55.8366 34.112C57.2673 32.6427 57.9826 30.4773 57.9826 27.616C57.9826 24.7547 57.2673 22.6087 55.8366 21.178C54.406 19.7087 52.7433 18.974 50.8486 18.974C48.8766 18.974 47.1753 19.7087 45.7446 21.178C44.3526 22.6087 43.6566 24.7547 43.6566 27.616C43.6566 30.4773 44.3526 32.6427 45.7446 34.112C47.1753 35.5427 48.8573 36.258 50.7906 36.258ZM73.4945 42V1.4H87.3565C92.1125 1.4 96.0178 2.25066 99.0725 3.952C102.166 5.61466 104.447 7.97333 105.916 11.028C107.424 14.044 108.178 17.6013 108.178 21.7C108.178 25.7987 107.424 29.3753 105.916 32.43C104.447 35.446 102.166 37.8047 99.0725 39.506C96.0178 41.1687 92.1125 42 87.3565 42H73.4945ZM80.9185 35.62H87.0085C90.4111 35.62 93.0985 35.0787 95.0705 33.996C97.0425 32.8747 98.4538 31.2893 99.3045 29.24C100.155 27.152 100.58 24.6387 100.58 21.7C100.58 18.8 100.155 16.306 99.3045 14.218C98.4538 12.13 97.0425 10.5253 95.0705 9.404C93.0985 8.28267 90.4111 7.722 87.0085 7.722H80.9185V35.62ZM129.519 42.696C126.735 42.696 124.222 42.058 121.979 40.782C119.775 39.506 118.016 37.7467 116.701 35.504C115.425 33.2227 114.787 30.5933 114.787 27.616C114.787 24.6387 115.444 22.0287 116.759 19.786C118.074 17.5047 119.833 15.726 122.037 14.45C124.28 13.174 126.793 12.536 129.577 12.536C132.322 12.536 134.797 13.174 137.001 14.45C139.244 15.726 141.003 17.5047 142.279 19.786C143.594 22.0287 144.251 24.6387 144.251 27.616C144.251 30.5933 143.594 33.2227 142.279 35.504C141.003 37.7467 139.244 39.506 137.001 40.782C134.758 42.058 132.264 42.696 129.519 42.696ZM129.519 36.258C131.452 36.258 133.134 35.5427 134.565 34.112C135.996 32.6427 136.711 30.4773 136.711 27.616C136.711 24.7547 135.996 22.6087 134.565 21.178C133.134 19.7087 131.472 18.974 129.577 18.974C127.605 18.974 125.904 19.7087 124.473 21.178C123.081 22.6087 122.385 24.7547 122.385 27.616C122.385 30.4773 123.081 32.6427 124.473 34.112C125.904 35.5427 127.586 36.258 129.519 36.258ZM167.203 42V1.4H174.627V36.2H192.607V42H167.203ZM204.136 8.766C202.783 8.766 201.662 8.36 200.772 7.548C199.922 6.736 199.496 5.71133 199.496 4.474C199.496 3.23667 199.922 2.23133 200.772 1.458C201.662 0.645998 202.783 0.239998 204.136 0.239998C205.49 0.239998 206.592 0.645998 207.442 1.458C208.332 2.23133 208.776 3.23667 208.776 4.474C208.776 5.71133 208.332 6.736 207.442 7.548C206.592 8.36 205.49 8.766 204.136 8.766ZM200.424 42V13.232H207.848V42H200.424ZM228.647 42.696C226.095 42.696 223.853 42.29 221.919 41.478C219.986 40.6273 218.439 39.4673 217.279 37.998C216.119 36.5287 215.423 34.8273 215.191 32.894H222.673C222.905 34.0153 223.524 34.982 224.529 35.794C225.573 36.5673 226.907 36.954 228.531 36.954C230.155 36.954 231.335 36.6253 232.069 35.968C232.843 35.3107 233.229 34.5567 233.229 33.706C233.229 32.4687 232.688 31.6373 231.605 31.212C230.523 30.748 229.015 30.3033 227.081 29.878C225.844 29.6073 224.587 29.2787 223.311 28.892C222.035 28.5053 220.856 28.022 219.773 27.442C218.729 26.8233 217.879 26.05 217.221 25.122C216.564 24.1553 216.235 22.976 216.235 21.584C216.235 19.032 217.241 16.886 219.251 15.146C221.301 13.406 224.162 12.536 227.835 12.536C231.238 12.536 233.945 13.3287 235.955 14.914C238.005 16.4993 239.223 18.684 239.609 21.468H232.591C232.166 19.3413 230.561 18.278 227.777 18.278C226.385 18.278 225.303 18.5487 224.529 19.09C223.795 19.6313 223.427 20.308 223.427 21.12C223.427 21.9707 223.988 22.6473 225.109 23.15C226.231 23.6527 227.719 24.1167 229.575 24.542C231.586 25.006 233.423 25.528 235.085 26.108C236.787 26.6493 238.14 27.4807 239.145 28.602C240.151 29.6847 240.653 31.2507 240.653 33.3C240.692 35.0787 240.228 36.6833 239.261 38.114C238.295 39.5447 236.903 40.666 235.085 41.478C233.268 42.29 231.122 42.696 228.647 42.696ZM260.302 42C257.286 42 254.869 41.2653 253.052 39.796C251.234 38.3267 250.326 35.7167 250.326 31.966V19.438H245.396V13.232H250.326L251.196 5.518H257.75V13.232H265.522V19.438H257.75V32.024C257.75 33.416 258.04 34.3827 258.62 34.924C259.238 35.4267 260.282 35.678 261.752 35.678H265.348V42H260.302Z" fill="url(#paint0_linear_1_497)"/>
</g>
<defs>
<filter id="filter0_d_1_497" x="0.565979" y="0.23999" width="268.956" height="50.4561" filterUnits="userSpaceOnUse" color-interpolation-filters="sRGB">
<feFlood flood-opacity="0" result="BackgroundImageFix"/>
<feColorMatrix in="SourceAlpha" type="matrix" values="0 0 0 0 0 0 0 0 0 0 0 0 0 0 0 0 0 0 127 0" result="hardAlpha"/>
<feOffset dy="4"/>
<feGaussianBlur stdDeviation="2"/>
<feColorMatrix type="matrix" values="0 0 0 0 0 0 0 0 0 0 0 0 0 0 0 0 0 0 0.07 0"/>
<feBlend mode="normal" in2="BackgroundImageFix" result="effect1_dropShadow_1_497"/>
<feBlend mode="normal" in="SourceGraphic" in2="effect1_dropShadow_1_497" result="shape"/>
</filter>
<linearGradient id="paint0_linear_1_497" x1="3" y1="30.75" x2="159.142" y2="29.3259" gradientUnits="userSpaceOnUse">
<stop stop-color="#2563EB"/>
<stop offset="1" stop-color="#D946EF"/>
</linearGradient>
</defs>
</svg>
